
<global>
amp_veltrack=0
ampeg_release=0.35
</global>

<group>
group_label=PP
lpc_hicc1=42
lpc_locc1=0

<region>
hikey=a3
hivel=127
lokey=g#3
loop_end=270974
loop_mode=loop_continuous
loop_start=95716
loop_xfade=52577
lovel=1
lpc=epd6Qd7TJsKn5TZCd4i+wdRKQ0Ac7IC/7I3NQPgTtMCEgck/VS7hP15pnsAo4rBAK2j8v2HqU8BQYPJA5+cAwQVnk0AT23q+RsCcPjSLIsBkrBo/EB55QFIll8AVKvc/
lpc_rms=-48.01
pitch_keycenter=a3
sample=Violin1Solo_trill_whole_PP_A3.opus
</region>

<region>
hikey=a4
hivel=127
lokey=g#4
loop_end=275301
loop_mode=loop_continuous
loop_start=94966
loop_xfade=52165
lovel=1
lpc=50lzQSQAKcLakVRCzOgewg0ZokGrBlXBSyFEQS/T6MAcSSJAFAFEPhEMe8CXxQ5BiRcPwQwy0D/1MOZANysEwaAPdUDfzsm/3Yj2P6U4p7+RH/K/7wp1QEcSPcCYqKY/
lpc_rms=-44.04
pitch_keycenter=a4
sample=Violin1Solo_trill_whole_PP_A4.opus
</region>

<region>
hikey=a5
hivel=127
lokey=g#5
loop_end=275129
loop_mode=loop_continuous
loop_start=97183
loop_xfade=53383
lovel=1
lpc=ZcvsQD5HVcEJXkZBneewwGMbrz/T9w+/Nz2HP+diP78p8yM/OhC/Py6zFsBaEyRAT0JZv/tD/T0jkr0/k2eNvyo41D8oVeC/LbolQNrb179I1lI/MXJavoKwwD5UWyk+
lpc_rms=-44.54
pitch_keycenter=a5
sample=Violin1Solo_trill_whole_PP_A5.opus
</region>

<region>
hikey=a6
hivel=127
lokey=g#6
loop_end=286688
loop_mode=loop_continuous
loop_start=112206
loop_xfade=61636
lovel=1
lpc=8FzJQNoXE8Hl+QBBOwaTwJAhc0CMpQzAPlEUP60rMT97mek/Z6Oxv3QvsT9Wx1y/5JDAvmQjhz6UcAbAQNeHQJWqWcCl5b8/m4GDv7CLJUDj6BnAzP+FP+iivL9+kLE/
lpc_rms=-45.37
pitch_keycenter=a6
sample=Violin1Solo_trill_whole_PP_A6.opus
</region>

<region>
hikey=b3
hivel=127
lokey=a#3
loop_end=283947
loop_mode=loop_continuous
loop_start=117499
loop_xfade=64543
lovel=1
lpc=YdmhQd4PVcIEUmJC7ILmwYXiwEAOScDAyjcsQcY34sAZctY/x7UGQD+0sMA2brBArYcEwCTdbr+LmzdAt0hpwPa7GkCesBI/sXOWvyMV2D2WKQq/v4eDPwPGuTu5vre+
lpc_rms=-45.64
pitch_keycenter=b3
sample=Violin1Solo_trill_whole_PP_B3.opus
</region>

<region>
hikey=b4
hivel=127
lokey=a#4
loop_end=269581
loop_mode=loop_continuous
loop_start=95223
loop_xfade=52307
lovel=1
lpc=/mdvQWAcFsIyrjFCPnEDwj8Nk0FsaEDBOKsUQWTC0sAamKlAldPZvxMRIcApPXtArztZwFdvuL8r0wRBVy4jwc4Y9UAEiX3AOSvdP2s39j4YtPu/gboVQEYPKMB9eQRA
lpc_rms=-41.42
pitch_keycenter=b4
sample=Violin1Solo_trill_whole_PP_B4.opus
</region>

<region>
hikey=b5
hivel=127
lokey=a#5
loop_end=282264
loop_mode=loop_continuous
loop_start=114075
loop_xfade=62662
lovel=1
lpc=bPDiQNIyU8FAcVNBV60PwSyJsUBFK1XA8w4JQNyNGcCTs2dA3HD+v0U2iT5cAkE/Q889v8MTMT/+K6i+6sZsP4w1u77HPrG/BN8UQNvCoL/biNE+Rdq7voGYkz5jKiy/
lpc_rms=-46.95
pitch_keycenter=b5
sample=Violin1Solo_trill_whole_PP_B5.opus
</region>

<region>
hikey=D7
hivel=127
lokey=a#6
loop_end=280752
loop_mode=loop_continuous
loop_start=94784
loop_xfade=52065
lovel=1
lpc=g2sJQerRJsFemfxA69pgwCl4F0Bq0N6/BMUJQFjm0z6qhri9erWEQL7ktsC6U4JA/23KwKTSy0AJ4iXA9Ou6P/d37D2BjQi9DwIAQAv+N8Cv6xVAkelOwIMCmUCX6+O/
lpc_rms=-42.86
pitch_keycenter=B6
sample=Violin1Solo_trill_whole_PP_B6.opus
</region>

<region>
hikey=c#4
hivel=127
lokey=c4
loop_end=282086
loop_mode=loop_continuous
loop_start=108310
loop_xfade=59495
lovel=1
lpc=yMCQQfn6TMLgPnRCd0EXwkbxLUFtTRLAmDBjQAVbZsDHeoBAR8JHwLtWQcAtu99AvFU1wG0HYMCCadtAgOHowPqx1EDoppHAi2tWQM+YGMDvE82/jjmpQH4HqMAlNgpA
lpc_rms=-44.43
pitch_keycenter=c#4
sample=Violin1Solo_trill_whole_PP_C#4.opus
</region>

<region>
hikey=c#5
hivel=127
lokey=c5
loop_end=285131
loop_mode=loop_continuous
loop_start=111570
loop_xfade=61286
lovel=1
lpc=LnPlQHL9jsG30KdBGKxwwZOxAUHnULrAhuexQFcTWcCEFnI/IsoePw6spr8y6s8/2Gmhv1rCYL+S+JRAYWi5wPCpZUA1J46/rpT/Ppd6nb8vnZg/1wziPmbEuL+M6H0/
lpc_rms=-48.63
pitch_keycenter=c#5
sample=Violin1Solo_trill_whole_PP_C#5.opus
</region>

<region>
hikey=c#6
hivel=127
lokey=c6
loop_end=284320
loop_mode=loop_continuous
loop_start=117673
loop_xfade=64639
lovel=1
lpc=rv0HQeYJhsH6JIlBa9wqwXaSyECPY1fA0nQaQIdDRsCm5IlAcrQJwF0pdT9e/S0/Q92Kv0kOEED7wIm/JXVGPyN8rz03U4C+IGRBv3IFSz/ds/A/DaucwMh7ekD3bha/
lpc_rms=-45.66
pitch_keycenter=c#6
sample=Violin1Solo_trill_whole_PP_C#6.opus
</region>

<region>
hikey=d#4
hivel=127
lokey=d4
loop_end=273859
loop_mode=loop_continuous
loop_start=96735
loop_xfade=53137
lovel=1
lpc=JJYdQQWx2MGIkwVCim+8wXHNJkHZOrbA5WPKQH4dr8BbhFdA4JkGvw77DMCq+HRAsD+LwIBPL0BzCXA/U6l8wE3rkEAfVVnAJSboP1SaWL4MZma/GydVPyFhIb/3f+0+
lpc_rms=-48.67
pitch_keycenter=d#4
sample=Violin1Solo_trill_whole_PP_D#4.opus
</region>

<region>
hikey=d#5
hivel=127
lokey=d5
loop_end=302604
loop_mode=loop_continuous
loop_start=106888
loop_xfade=58714
lovel=1
lpc=SKbJQGTkWcGYo2pBIfAmwU5G1UCUX7rAHgy1QNpjgMAChxdAUIIvvviNg7+3pq4/xzvqvui/ir8QTUdAIJJSwDJ9CUD+W8u/PQSvPzjlFr8MgPu+hiv2Pt+hzj0Hw0E+
lpc_rms=-47.25
pitch_keycenter=d#5
sample=Violin1Solo_trill_whole_PP_D#5.opus
</region>

<region>
hikey=d#6
hivel=127
lokey=d6
loop_end=264589
loop_mode=loop_continuous
loop_start=93460
loop_xfade=51338
lovel=1
lpc=i3kyQXC2s8EvcsNBv9N0wSIAAUEjnVrA56XNP2xKcb9G9BhA29/Lv+f1OD8nxk89xMy8P2RtOL/bNvO9g0PTP7KSFL+w5wnAOD27QLeuR8HbomdBWc4YwTsVGkAOJUY+
lpc_rms=-43.13
pitch_keycenter=d#6
sample=Violin1Solo_trill_whole_PP_D#6.opus
</region>

<region>
hikey=f4
hivel=127
lokey=e4
loop_end=274435
loop_mode=loop_continuous
loop_start=112152
loop_xfade=61605
lovel=1
lpc=tYg7Qca3+sENDRdCOCLPwVopL0HW+tbABkoBQWy80cD+kztAHSaMP1ZMqMDv8c5AdL0wwKJuQ8DOaNVAJ624wFjaGUC7yfa+hfg0P2bRPr9oIHe/vlc2QNXdQsDqEdM/
lpc_rms=-47.36
pitch_keycenter=f4
sample=Violin1Solo_trill_whole_PP_F4.opus
</region>

<region>
hikey=f5
hivel=127
lokey=e5
loop_end=277158
loop_mode=loop_continuous
loop_start=97900
loop_xfade=53777
lovel=1
lpc=vmtpQKqVysALtadA+fL8v3CglT/Pp7y/diilPyxGz74AZRy9BhofP0tgQL/BS/s+/ouOPuXDn77NC5Q/2KYTwFsCKEArR2e/roqQvvrMNb4nzds/g0Oyv1B26T7niqA+
lpc_rms=-47.48
pitch_keycenter=f5
sample=Violin1Solo_trill_whole_PP_F5.opus
</region>

<region>
hikey=f6
hivel=127
lokey=e6
loop_end=272962
loop_mode=loop_continuous
loop_start=96418
loop_xfade=52963
lovel=1
lpc=6Jy5QDHSDMGfzAZBi3FcwG39oD9Ptmu/LKfAP3FNzb5vuvC+ObB0PyMue77FcQI7yGwxP6f7iL76SYM/WLUkwK5ibkAuvrvAvvOcQMsGX8C9bnk/Mi3GPqIdX78fXRw/
lpc_rms=-46.87
pitch_keycenter=f6
sample=Violin1Solo_trill_whole_PP_F6.opus
</region>

<region>
hivel=127
key=g3
loop_end=270415
loop_mode=loop_continuous
loop_start=95518
loop_xfade=52469
lovel=1
lpc=tAtfQQe9FcJO4ihC1ZW0wbAxOkB/8EO/4WCqQPtLZcDABay+n4LGP/VyI8BTAjJAUDddvzb3CMCPCp9AfPewwOh3P0CX0tE9Wwq8Pbyvgr+IKLG/PlGTQK1XiMA37t0/
lpc_rms=-49.54
sample=Violin1Solo_trill_whole_PP_G3.opus
</region>

<region>
hikey=g4
hivel=127
lokey=f#4
loop_end=282766
loop_mode=loop_continuous
loop_start=112627
loop_xfade=61867
lovel=1
lpc=cf9VQajWGcLnzUhCr3AawpqQmUFEPCTBWIUiQfwsDsHCN8FAOYdCwOhSAb7hgzJAhqWEwCgN6j8MIjpAJe6RwAyWOECWd52/yLW7Px1Qfr8FPeK/5GB8QOs9fcBtavg/
lpc_rms=-43.61
pitch_keycenter=g4
sample=Violin1Solo_trill_whole_PP_G4.opus
</region>

<region>
hikey=g5
hivel=127
lokey=f#5
loop_end=278387
loop_mode=loop_continuous
loop_start=98334
loop_xfade=54015
lovel=1
lpc=R3WkQFHkDsGSIQhBu/6OwAFcwD/oy4O/CZHrP234CcA4YCdArmyhv9HiBD91LWY/I2hrv59Iaj6wxLg/kVfZv0xe4z/NNZ+/GDjSPrcbhj+SLTi/268YP0qeCz42O0y9
lpc_rms=-46.88
pitch_keycenter=g5
sample=Violin1Solo_trill_whole_PP_G5.opus
</region>

<region>
hikey=g6
hivel=127
lokey=f#6
loop_end=292524
loop_mode=loop_continuous
loop_start=117595
loop_xfade=64596
lovel=1
lpc=Uvq6QKQqBcFaFd9AjnZZwOEedECR7UzAWoEuQPqptL8+Mfs/Qr6ePs47Pr/7dII/9hOkvsalK78vo9Q/0v+awLvJl0Dcpg3AUiMOP/8Z2L/XkJ4/pwdUv2JDaD+uDMO/
lpc_rms=-46.42
offset=12304
pitch_keycenter=g6
sample=Violin1Solo_trill_whole_PP_G6.opus
</region>
</group>

<group>
group_label=MF
lpc_hicc1=84
lpc_locc1=43

<region>
hikey=a3
hivel=127
lokey=g#3
loop_end=269328
loop_mode=loop_continuous
loop_start=95134
loop_xfade=52258
lovel=1
lpc=m42bQVSFSMJ5kE9Cw2W6wSMsRsDIjMpAu6rYP9VuisClJFBAji8zvyNUosBeYOhAO1r2v/thiMAf7PBA1wEBweMI2kC2d4DAjUFMP+3WLkAiHn3AzlhRQCLGMMDAc6Y/
lpc_rms=-33.41
pitch_keycenter=a3
sample=Violin1Solo_trill_whole_MF_A3.opus
</region>

<region>
hikey=a4
hivel=127
lokey=g#4
loop_end=268760
loop_mode=loop_continuous
loop_start=94933
loop_xfade=52148
lovel=1
lpc=W1tkQemeEsKqMCVCj63NwRKZAUEEtmXA2FKFQCEu5b/Pu1u9sOC+P3D3i8CQ6BpBT7kpweh0RECcishAbPXuwLw/K0Dio0W9H0/kPqlWnr/PUvc+XgMGPpe9pT1XtHI+
lpc_rms=-34.37
pitch_keycenter=a4
sample=Violin1Solo_trill_whole_MF_A4.opus
</region>

<region>
hikey=a5
hivel=127
lokey=g#5
loop_end=279121
loop_mode=loop_continuous
loop_start=95966
loop_xfade=52715
lovel=1
lpc=w+abQJZz7sDGfeBAQudywKHtDkC6xTq/4qYbPsuMtD4ykss+g0knPye4sb7M8hU/gh2Avt5unT//MzS+/HHdvJPCUD8ZBJC+ve05P3muB70aCju9tCk6P4HiqL5H3Kc+
lpc_rms=-34.42
pitch_keycenter=a5
sample=Violin1Solo_trill_whole_MF_A5.opus
</region>

<region>
hikey=a6
hivel=127
lokey=g#6
loop_end=278125
loop_mode=loop_continuous
loop_start=110836
loop_xfade=60883
lovel=1
lpc=9Fm6QGxSxcAMLMxAQ3gDwDEdA0BC7zE+ZPbSPxdNFL+JxAtAJLjJP2KdR75GLIA/qmvDv7EGJj8Z2ADAeAchQPJKc8AK9cM/6PqCvjq6Yb8CqxC/1FXhPZg7zb+L/iu9
lpc_rms=-36.22
pitch_keycenter=a6
sample=Violin1Solo_trill_whole_MF_A6.opus
</region>

<region>
hikey=b3
hivel=127
lokey=a#3
loop_end=271715
loop_mode=loop_continuous
loop_start=95977
loop_xfade=52721
lovel=1
lpc=eJ6jQaHhV8I19WVCADTewZ3Kgb1P2nJA8fYuQOmlS8B6x7E+NQfiP87ImcAJRbRAC8PAvxUFiMDgSPpAK7LTwJ6OWEAsc/q+h2QHP0lWJ79NfDG/ls2jP9EL5b9bTYg/
lpc_rms=-31.39
pitch_keycenter=b3
sample=Violin1Solo_trill_whole_MF_B3.opus
</region>

<region>
hikey=b4
hivel=127
lokey=a#4
loop_end=263781
loop_mode=loop_continuous
loop_start=93175
loop_xfade=51181
lovel=1
lpc=IZ5xQS77CsI88AxCZQaiweRQFEGrSx3BiWU1QV85DcGgSsNAXWAUPQvtucCwoclAsPavwM7Qkj80x8RAGHsAwRhjkEB1is6+xvSUP0kAO8BcBsU/1jDJP11VeMDjXj9A
lpc_rms=-31.89
pitch_keycenter=b4
sample=Violin1Solo_trill_whole_MF_B4.opus
</region>

<region>
hikey=b5
hivel=127
lokey=a#5
loop_end=273436
loop_mode=loop_continuous
loop_start=94418
loop_xfade=51865
lovel=1
lpc=Bp64QCRIGsGpOhlBmbCqwENFJ0AEMYa/e+62P37JBsCv5jVA0Tvcvo7ZxL0Rgrs+v6avPqDtAb+SW4U/koYCP8yPR7+efkM+5OyvP0Tadr9WIEY/HO5qvy5CCT9UYNG+
lpc_rms=-35.71
pitch_keycenter=b5
sample=Violin1Solo_trill_whole_MF_B5.opus
</region>

<region>
hikey=D7
hivel=127
lokey=a#6
loop_end=281384
loop_mode=loop_continuous
loop_start=94812
loop_xfade=52081
lovel=1
lpc=jN/pQJ8xvsD+0pxAqsOav0CFrj8FX44/I+woPi4H6T9J4Js+GBFuQF4wd8DqJAJAvCmTwPB/jUCdVpa/yDSJP4a2Rj/f7YC+oYW1P/e8UL+amJw/Ff0XwB2NikCKXxa8
lpc_rms=-35.72
pitch_keycenter=B6
sample=Violin1Solo_trill_whole_MF_B6.opus
</region>

<region>
hikey=c#4
hivel=127
lokey=c4
loop_end=271416
loop_mode=loop_continuous
loop_start=95872
loop_xfade=52663
lovel=1
lpc=mk+TQccdScIWPl9C0OjvwWQXd0D4j4tANIcmwOOafT7e3dg/a66av8yCPcDddJhAyjrVv36zNMBXzABBWKMzwcRxD0Gs8wzAD40OwOfMOEDUdSrA5PMKQL1iGMAwgLE/
lpc_rms=-33.30
pitch_keycenter=c#4
sample=Violin1Solo_trill_whole_MF_C#4.opus
</region>

<region>
hikey=c#5
hivel=127
lokey=c5
loop_end=269237
loop_mode=loop_continuous
loop_start=95102
loop_xfade=52240
lovel=1
lpc=MU4BQXeSlMH+vZdBImk5wZh3s0AHeZTAhwqqQNh0h8CY/ztAKYYpPgxsWsDfIkxAzHlvvxXXDsDH35pADzJZwKWNZT9htne+E/SnP6ek6L/jATk+7RYBQKJxGcAmg68/
lpc_rms=-35.99
pitch_keycenter=c#5
sample=Violin1Solo_trill_whole_MF_C#5.opus
</region>

<region>
hikey=c#6
hivel=127
lokey=c6
loop_end=273117
loop_mode=loop_continuous
loop_start=93870
loop_xfade=51563
lovel=1
lpc=oUHRQB/jKcFGxiFBFH6XwGCPC0CyONm+xUeZPwP91r+bgUtAqyGYv8M7oD8SN8Q+E2mBPtYKMT+esIY/55lYvjyvgj+QM4a/W+fdPyw9G8CfBIdAoQ6OwGvGHUDca4E+
lpc_rms=-36.46
pitch_keycenter=c#6
sample=Violin1Solo_trill_whole_MF_C#6.opus
</region>

<region>
hikey=d#4
hivel=127
lokey=d4
loop_end=271063
loop_mode=loop_continuous
loop_start=95747
loop_xfade=52594
lovel=1
lpc=iPAaQYyMxsG0y9hBiKN5wcfDmEDMd2DAmNWiQNHWPcAhoeM+6tWBP9NPAMB7uSpAJw0JwPEtJL9cJm5Ac+qFwLQGGEAsMbG/XvrgP2G5yb+yavc+OL/ZPp11Pr9DWgE/
lpc_rms=-37.60
pitch_keycenter=d#4
sample=Violin1Solo_trill_whole_MF_D#4.opus
</region>

<region>
hikey=d#5
hivel=127
lokey=d5
loop_end=279724
loop_mode=loop_continuous
loop_start=111339
loop_xfade=61159
lovel=1
lpc=Mt2wQBKlM8EGGyxB3++6wFGlT0Dqf2fAlDGQQJwALcAialw/sSIhv8qO1j5y5ri8OKArPzWSzr/uI1JAQch9wGqaPEBo7nK/gi4EPfJEvD497yE/0tXxvoDSlb65NCY/
lpc_rms=-39.85
pitch_keycenter=d#5
sample=Violin1Solo_trill_whole_MF_D#5.opus
</region>

<region>
hikey=d#6
hivel=127
lokey=d6
loop_end=270211
loop_mode=loop_continuous
loop_start=93347
loop_xfade=51276
lovel=1
lpc=HC0LQYHqSsFeqVxBxf3IwPJ0LEAgjeE9BqlNP0nItL5djR9A9ntuvqhMDT7/SdI/qLZ0PyZoqr78e68/qpuUPyo50j/IEpjA3pkDQYOuFMElxblA8jTsv1l3ob++VLk/
lpc_rms=-34.06
pitch_keycenter=d#6
sample=Violin1Solo_trill_whole_MF_D#6.opus
</region>

<region>
hikey=f4
hivel=127
lokey=e4
loop_end=275876
loop_mode=loop_continuous
loop_start=97447
loop_xfade=53528
lovel=1
lpc=1opIQZUh+MG06wJCrtmGwUvTnz/6VD0/J8kZQFbWlr+/mAy/csy6P68IYcA8psRARK/RwIYpA0BSbIBA/jCpwE1gG0BJfAC/eb6NP+Yvxb9e2D6/8WQnQNU8GcC1wbo/
lpc_rms=-34.99
pitch_keycenter=f4
sample=Violin1Solo_trill_whole_MF_F4.opus
</region>

<region>
hikey=f5
hivel=127
lokey=e5
loop_end=281910
loop_mode=loop_continuous
loop_start=112097
loop_xfade=61576
lovel=1
lpc=ltSYQDkgCsEvR+tAFLJMwC7IC0Bw4VHARPKDQFtsZsAAe0BAlSWtvzZsIb0QV9w9mo3WP8xCBcB9ctA/foRkv396PT8TsBw+4r2dvaPKNr/sZII/z301PzBQur+dqZ0/
lpc_rms=-38.87
pitch_keycenter=f5
sample=Violin1Solo_trill_whole_MF_F5.opus
</region>

<region>
hikey=f6
hivel=127
lokey=e6
loop_end=276110
loop_mode=loop_continuous
loop_start=94659
loop_xfade=51996
lovel=1
lpc=SjWpQLsi4sAZBNpAXFEYwBNJ1D9OOh+/RFoHQE88wL7TE6o/zrxSP/50CL9mwrM/QHhUP57JMD6FfsY/H1skwFZtjEC954TALAgjQGW2gr+/H8I+7FkMP9BsqL6ZRY89
lpc_rms=-36.83
pitch_keycenter=f6
sample=Violin1Solo_trill_whole_MF_F6.opus
</region>

<region>
hivel=127
key=g3
loop_end=277368
loop_mode=loop_continuous
loop_start=97974
loop_xfade=53818
lovel=1
lpc=Jo1cQd5AEsKKICRCKeSywWonFkBe+ts/jIlVQJsKmsDyijlAqwtzvm+ydMChVqVAW/jNv0tUUsCIB89AU2zRwIvhjkDFrw/AM13WPxt+kr/HNuW+KFQSQNASOcDgP8Y/
lpc_rms=-36.58
sample=Violin1Solo_trill_whole_MF_G3.opus
</region>

<region>
hikey=g4
hivel=127
lokey=f#4
loop_end=270443
loop_mode=loop_continuous
loop_start=95528
loop_xfade=52474
lovel=1
lpc=HU5lQapkGsLzjS5CvyTEwR/yfEAN5iU/kWtZQELpVsBZd8E/eVwUv1wQDsDEfvlAMggxwfN+hEBNMgBB3b4vwas3jkBVY6s/fohmvzzTtr8ejfY+2UMSQPTsbcALvglA
lpc_rms=-33.29
pitch_keycenter=g4
sample=Violin1Solo_trill_whole_MF_G4.opus
</region>

<region>
hikey=g5
hivel=127
lokey=f#5
loop_end=283414
loop_mode=loop_continuous
loop_start=96136
loop_xfade=52808
lovel=1
lpc=O6y7QN5GDMGUOeZA80UnwCgpyz/fzse/jaIUQMVMOsAG6WtAbwSfv4YH9D5A694+PfwFPjlktj7SDkk+uMTSP3X9sL+rAkc/I6VaPlgn0D7DAIY9zp+cP1Hdxb9eDr4/
lpc_rms=-35.84
pitch_keycenter=g5
sample=Violin1Solo_trill_whole_MF_G5.opus
</region>

<region>
hikey=g6
hivel=127
lokey=f#6
loop_end=276624
loop_mode=loop_continuous
loop_start=115280
loop_xfade=63324
lovel=1
lpc=bOGsQCGAzMA5X8NAwIcvwMg6Q0CjzwbAMJ5CQLaWy79ENxpAr9ykPgIYxz5afmE+jK/SPsD+TL+0L7U/XXODwETyh0CyvgXACP4dP/cNmL/fZpE/iSXAvzJRkj8nWZO/
lpc_rms=-36.38
pitch_keycenter=g6
sample=Violin1Solo_trill_whole_MF_G6.opus
</region>
</group>

<group>
group_label=FF
lpc_hicc1=127
lpc_locc1=85

<region>
hikey=a3
hivel=127
lokey=g#3
loop_end=263209
loop_mode=loop_continuous
loop_start=92972
loop_xfade=51071
lovel=1
lpc=pBVeQac2EsJbaidCb1jGwZjPjkDTojc/LQODQO24q8CPICdAod+JPjACX8AV/ZZAevECwMU/OsAMBuJAMPTcwNwXa0A6cjK/NA7UPiRdtr4LqnC/KzwJQFdzDsD2DIo/
lpc_rms=-27.38
pitch_keycenter=a3
sample=Violin1Solo_trill_whole_FF_A3.opus
</region>

<region>
hikey=a4
hivel=127
lokey=g#4
loop_end=267524
loop_mode=loop_continuous
loop_start=94497
loop_xfade=51908
lovel=1
lpc=VnF1QbLjG8LjESpCxAu8wZNWjEBg+K+/DBFlQHwHUMBTkSVAoUUsPxYiU8AAXU9A5B/ev1tXer+E1MpAPaYNwaPtm0AVStw+/dX8v3oXsT4wUoc/bIQQwMLfD0C9l7C+
lpc_rms=-27.13
pitch_keycenter=a4
sample=Violin1Solo_trill_whole_FF_A4.opus
</region>

<region>
hikey=a5
hivel=127
lokey=g#5
loop_end=272374
loop_mode=loop_continuous
loop_start=96210
loop_xfade=52849
lovel=1
lpc=km2ZQIkf6cADl8hA/mAYwJrGkj+KPhK/Iu/ePrI+yj6ldby+st7NP6USfr9HDBU/0JacPrVS+703KFA/a6YPvk2e/T4NjFs9XWg2P8J2+L4qra0/aT2Jv3mR2D56FWs9
lpc_rms=-25.39
pitch_keycenter=a5
sample=Violin1Solo_trill_whole_FF_A5.opus
</region>

<region>
hikey=a6
hivel=127
lokey=g#6
loop_end=269540
loop_mode=loop_continuous
loop_start=95209
loop_xfade=52299
lovel=1
lpc=wqngQB5ArsC+QMZAFK3NPnJ+8z4JElFAYKywPzOrXT/usR9ApdRJQNaQk735uRs/w0EOPw+uKcCNm4S+kDefP85gicB2/pg/zyMBv9nwUsDr0o4/cwXvv419DcCaVCm+
lpc_rms=-27.59
pitch_keycenter=a6
sample=Violin1Solo_trill_whole_FF_A6.opus
</region>

<region>
hikey=b3
hivel=127
lokey=a#3
loop_end=274038
loop_mode=loop_continuous
loop_start=96798
loop_xfade=53172
lovel=1
lpc=4dKEQdOaLMLTgTtCYq/JwT+dN0CkYns/ZHSkQFfMwsCJdBFAT6mmP/4yksArh7FAIrlJwKLR9L8y2eNA3kHiwAkYfUBuq2q/samFPopWrL7C3Cy+P6G5Pg5kcb+yPig/
lpc_rms=-24.05
pitch_keycenter=b3
sample=Violin1Solo_trill_whole_FF_B3.opus
</region>

<region>
hikey=b4
hivel=127
lokey=a#4
loop_end=270497
loop_mode=loop_continuous
loop_start=95547
loop_xfade=52485
lovel=1
lpc=jr4fQVh6scEHDK9BXbJVwaJ6BUGvNAjBZLDpQMcDpsD4xGJAxhQaPxCuU8D6Y+k/9MAWv9o5Ij+rNHY+19Wrv0bDBUD3Q+6/HSPDP8rcjb9zy8g/1AnSv8X5cT4d/EE/
lpc_rms=-25.74
pitch_keycenter=b4
sample=Violin1Solo_trill_whole_FF_B4.opus
</region>

<region>
hikey=b5
hivel=127
lokey=a#5
loop_end=264779
loop_mode=loop_continuous
loop_start=93527
loop_xfade=51375
lovel=1
lpc=eY+pQPxaE8FBExRB1aWSwEZSFkAXEdq/6GNDQKkBBcAh4KM/yoGPP43jy77LKc69AF1aP872+TveW1s/k04yvkjrRT5G+p4//xy7vs7HfL5IPsk/Jvbfv8bflT+Ny4W+
lpc_rms=-24.56
pitch_keycenter=b5
sample=Violin1Solo_trill_whole_FF_B5.opus
</region>

<region>
hikey=D7
hivel=127
lokey=a#6
loop_end=270605
loop_mode=loop_continuous
loop_start=95585
loop_xfade=52506
lovel=1
lpc=/GTDQEAvmsBYF7RAsuwBwFm4IkAKbjE//23MPzGkiz/JvPk/lej1P2Wc3L9v0LQ/xKcywAShQkAYpoG/YOGUP0qFyzo5/J8+B7ZVvLvyiT0O8iW/EiWXPpxqAUD320+9
lpc_rms=-28.49
pitch_keycenter=B6
sample=Violin1Solo_trill_whole_FF_B6.opus
</region>

<region>
hikey=c#4
hivel=127
lokey=c4
loop_end=268552
loop_mode=loop_continuous
loop_start=94860
loop_xfade=52107
lovel=1
lpc=wA1fQZoBE8IvdSZCEPjKwV+A20CZBf2/+r+xQOufz8CDU4pA9Z0ev/4Oj8CIzcdAoHImwHksOsC56tpA2YPcwLKXlUBzew3A2OJpP8jGjbz7JOq9DlXDvSBVUb8lXzc/
lpc_rms=-24.26
pitch_keycenter=c#4
sample=Violin1Solo_trill_whole_FF_C#4.opus
</region>

<region>
hikey=c#5
hivel=127
lokey=c5
loop_end=268657
loop_mode=loop_continuous
loop_start=94897
loop_xfade=52128
lovel=1
lpc=L73HQJbqV8FleVJBK78BwYoVqUDhoJjAIFeAQO5XacD2QztAbeC5vZtdvL9qsIg/9E4Ov70loz7wlog/O0vDv+PiOj+PBSu/9zZyP/fSKr/ovRE/SxivvmHxlb4rvjo/
lpc_rms=-29.87
pitch_keycenter=c#5
sample=Violin1Solo_trill_whole_FF_C#5.opus
</region>

<region>
hikey=c#6
hivel=127
lokey=c6
loop_end=281476
loop_mode=loop_continuous
loop_start=110297
loop_xfade=60587
lovel=1
lpc=2CPAQBEzHsH7axhBNkWRwCG/0D/em68+FDyAP+t6j78Io6Y/GmGEP+YWqb5ji3K7UmvgP5cjK7/soZo/zRSrvfCmuD4qCI0+lNxeP9QCKcBgcKZAw5/PwATmmkDVQpa/
lpc_rms=-25.78
pitch_keycenter=c#6
sample=Violin1Solo_trill_whole_FF_C#6.opus
</region>

<region>
hikey=d#4
hivel=127
lokey=d4
loop_end=268017
loop_mode=loop_continuous
loop_start=94671
loop_xfade=52003
lovel=1
lpc=3qH6QNlFncGYR6pBKgE2waH2pj9axmM+CUIOQKTuFcCEP1s/ZxJiPybzrb/mJE8/Azg4vrktnL/uOUNAXhBfwCTL+T/mboK+TzSIPjvFVb//9Ak/qvZFviQBHL71GZY+
lpc_rms=-29.38
pitch_keycenter=d#4
sample=Violin1Solo_trill_whole_FF_D#4.opus
</region>

<region>
hikey=d#5
hivel=127
lokey=d5
loop_end=273090
loop_mode=loop_continuous
loop_start=96463
loop_xfade=52988
lovel=1
lpc=5cWeQL8GE8EnDu5AeJpJwDw5IkCXQ13ATKhiQHbEPcD8oSJAZ9qQvy25Ir7IE02+HdqUPz/rQ79a0VA/yzlnv0Fhoz6OXjA/pCrgvXztXb/IjJQ/t2mZvmVWuj1WBZs+
lpc_rms=-29.93
pitch_keycenter=d#5
sample=Violin1Solo_trill_whole_FF_D#5.opus
</region>

<region>
hikey=d#6
hivel=127
lokey=d6
loop_end=289455
loop_mode=loop_continuous
loop_start=109787
loop_xfade=60307
lovel=1
lpc=TbbSQLu3EcF5AxFBZbt3wCooEkCxRkk/2MZ5P1/lnj5eSek/FQ2XP6eabD59z60/c2iCP7MqcT9SjGA/txzmP4UOt742to+9KMWFQAx/2MBrdO1A3K14wMOynj8tQzg/
lpc_rms=-27.07
pitch_keycenter=d#6
sample=Violin1Solo_trill_whole_FF_D#6.opus
</region>

<region>
hikey=f4
hivel=127
lokey=e4
loop_end=267899
loop_mode=loop_continuous
loop_start=94629
loop_xfade=51981
lovel=1
lpc=6vAfQfBQxcHFDddBaaNywUX0KUBroP2+UTRKQKLHaMBQXDRAUvxVvyienb9Mc9g/52S4v4r3D7+KtnRAeWiqwCoGeECWaCy/q4AEv3LRzb57ihw/yi4ivnuqA7+yW00/
lpc_rms=-27.10
pitch_keycenter=f4
sample=Violin1Solo_trill_whole_FF_F4.opus
</region>

<region>
hikey=f5
hivel=127
lokey=e5
loop_end=266549
loop_mode=loop_continuous
loop_start=94152
loop_xfade=51719
lovel=1
lpc=6ms7QO/Fi8BwS1tAQuutvzh+Yj9Nnii/2W2DPyBFnr9LjY4/7X+xPRFiyL5iiqw+CY9UvvLr6D5HkHY+zzqmvoJLbj4Covc+i+wNvzPGET8vBvU8ks1cPY9Sl7409Co/
lpc_rms=-28.86
pitch_keycenter=f5
sample=Violin1Solo_trill_whole_FF_F5.opus
</region>

<region>
hikey=f6
hivel=127
lokey=e6
loop_end=270860
loop_mode=loop_continuous
loop_start=92761
loop_xfade=50954
lovel=1
lpc=RemSQLkpv8Dq9tVAtTQwwIPKLECILJS+l7K7P7IFzD5B82A/6Y+EP/PwGT4mNck/48KTPw6v8Ty9360/qV90v4BwSEDIgHnA1AuRQNNsQsAr2JU/yL3aPr/tXr9z2Ds/
lpc_rms=-30.10
pitch_keycenter=f6
sample=Violin1Solo_trill_whole_FF_F6.opus
</region>

<region>
hivel=127
key=g3
loop_end=259230
loop_mode=loop_continuous
loop_start=91567
loop_xfade=50298
lovel=1
lpc=fVUlQTSx1cGI9PVBPKWZwc1prEAwVOK/2hKdQGQPusApGG5AxTjUvvVRScCJlXBAdzSfv51OEcAX15hAZf+cwFrpZUAWI8i/dJX6Pr6lV76i9RO+cMgzP0MCmr8yZmE/
lpc_rms=-27.38
sample=Violin1Solo_trill_whole_FF_G3.opus
</region>

<region>
hikey=g4
hivel=127
lokey=f#4
loop_end=271020
loop_mode=loop_continuous
loop_start=95732
loop_xfade=52586
lovel=1
lpc=8J08QalC9MHYJglCVcubwdWEREDw4Q++odZjQHDQXsDfPghAd/KFv2XOED+YNKa+2hW8voRcl792vbVAykcDwe/MzUDtXBPA/uVzPtzVZb+Q+2k/0pZSvdzQX79u6HM/
lpc_rms=-25.62
pitch_keycenter=g4
sample=Violin1Solo_trill_whole_FF_G4.opus
</region>

<region>
hikey=g5
hivel=127
lokey=f#5
loop_end=270103
loop_mode=loop_continuous
loop_start=95408
loop_xfade=52408
lovel=1
lpc=DXqMQGuW3cDuotZAWZdbwFARBUAaaJu/rQjKP4jdmL9XwII/8IxQPy1Pdb/WF30/71dHviTUTj+AXTS+c5wyP125oL0KoR4/vJtdvoRGqD1zR3w/veSDvdqGnb43KjU/
lpc_rms=-26.57
pitch_keycenter=g5
sample=Violin1Solo_trill_whole_FF_G5.opus
</region>

<region>
hikey=g6
hivel=127
lokey=f#6
loop_end=267607
loop_mode=loop_continuous
loop_start=94526
loop_xfade=51924
lovel=1
lpc=SeODQBJ/k8CYMq5AeE05wPOwaEDuxrm/kTIvQJ/mk79E1TpA92EtPkkunT8OE+U+iKHqP4bAmL/v2DpAXwZ0wKwYjUA0hCDAGo0PQOpm878ekt0/UdGOvzbqgT935Uy/
lpc_rms=-29.89
pitch_keycenter=g6
sample=Violin1Solo_trill_whole_FF_G6.opus
</region>
</group>